<svg viewBox="-4.8 -4.8 57.60 57.60" fill="none" xmlns="http://www.w3.org/2000/svg"><g id="SVGRepo_bgCarrier" stroke-width="0"><path transform="translate(-4.8, -4.8), scale(1.7999999999999998)" d="M16,28.535926746694663C17.972322961643094,28.417903111636175,19.61914662281346,27.147062239261846,21.35730122997856,26.20748467192228C23.077020719844494,25.277872399150972,24.725515138538466,24.330739135162702,26.185098365860238,23.030265796707525C27.946795448590443,21.460612183512215,30.147421119898297,20.0650151615599,30.797129437220292,17.79669680226378C31.456060524141996,15.496179105128178,30.555310302907564,13.039123101980184,29.685366250936646,10.809825185911912C28.820279902588922,8.592975505496883,27.645370297144186,6.438948102247043,25.78561901496994,4.954319507579321C23.960408307692475,3.4972644522657825,21.581002587523866,3.1154527821389464,19.318973670663468,2.5343944894845745C17.038577828062007,1.9486181959094964,14.711142585268515,0.933424200439726,12.432014720691274,1.5241146794354208C10.157609459161515,2.113581182936111,7.869250994229158,3.600098875362145,6.917900661947156,5.748429063599165C5.954793121108836,7.923309267339252,8.151968365848871,10.485231287280946,7.456460729363451,12.759862941731974C6.8306996420816475,14.806391121418933,3.236352261812857,15.401858516869499,3.31225083526369,17.54057166620885C3.3852425943990907,19.597374949309042,6.539653360089199,20.031074984349488,7.772972344808602,21.678707171521157C8.942750581191593,23.241453142350455,8.795785075699499,25.61960712512763,10.295280417024046,26.869435038483896C11.83947668126692,28.156521127758708,13.993332666914467,28.656005545963207,16,28.535926746694663" fill="#43e5ca" strokewidth="0"></path></g><g id="SVGRepo_tracerCarrier" stroke-linecap="round" stroke-linejoin="round"></g><g id="SVGRepo_iconCarrier"> <path d="M16 6H8C6.89543 6 6 6.89543 6 8V16" stroke="#595959" stroke-width="0.672" stroke-linecap="round" stroke-linejoin="round"></path> <path d="M16 42H8C6.89543 42 6 41.1046 6 40V32" stroke="#595959" stroke-width="0.672" stroke-linecap="round" stroke-linejoin="round"></path> <path d="M32 42H40C41.1046 42 42 41.1046 42 40V32" stroke="#595959" stroke-width="0.672" stroke-linecap="round" stroke-linejoin="round"></path> <path d="M32 6H40C41.1046 6 42 6.89543 42 8V16" stroke="#595959" stroke-width="0.672" stroke-linecap="round" stroke-linejoin="round"></path> <path d="M32 24L16 24" stroke="#595959" stroke-width="0.672" stroke-linecap="round" stroke-linejoin="round"></path> <path d="M24 32L24 16" stroke="#595959" stroke-width="0.672" stroke-linecap="round" stroke-linejoin="round"></path> </g></svg>