 <svg version="1.0" id="Layer_1" xmlns="http://www.w3.org/2000/svg" xmlns:xlink="http://www.w3.org/1999/xlink"
          viewBox="0 0 64 64" enable-background="new 0 0 64 64" xml:space="preserve" fill="#000000">
          <g id="SVGRepo_bgCarrier" stroke-width="0"></g>
          <g id="SVGRepo_tracerCarrier" stroke-linecap="round" stroke-linejoin="round"></g>
          <g id="SVGRepo_iconCarrier">
            <g>
              <circle fill="#52bef4" cx="46" cy="38" r="2"></circle>
              <path fill="#52bef4"
                d="M62,32h-2V16c0-2.211-1.789-4-4-4V8c0-1.343-0.404-2.385-1.205-3.099c-1.186-1.058-2.736-0.91-2.896-0.896 c-0.072,0.007-1.484,0.152-3.789,0.39l-0.641-1.761c-0.756-2.078-3.049-3.147-5.127-2.391L24.131,6.871 C15.535,7.764,7.397,8.616,3.89,9.006C0.951,9.332,0.062,12.908,0,14.97c-0.004,0.134,0.021,0.263,0.065,0.38 C0.031,15.562,0,15.777,0,16v44c0,2.211,1.789,4,4,4h52c2.211,0,4-1.789,4-4V44h2c1.105,0,2-0.895,2-2v-8 C64,32.895,63.105,32,62,32z M55,18c0.553,0,1,0.447,1,1s-0.447,1-1,1h-2c-0.553,0-1-0.447-1-1s0.447-1,1-1H55z M50,19 c0,0.553-0.447,1-1,1h-2c-0.553,0-1-0.447-1-1s0.447-1,1-1h2C49.553,18,50,18.447,50,19z M7,58H5c-0.553,0-1-0.447-1-1s0.447-1,1-1 h2c0.553,0,1,0.447,1,1S7.553,58,7,58z M7,20H5c-0.553,0-1-0.447-1-1s0.447-1,1-1h2c0.553,0,1,0.447,1,1S7.553,20,7,20z M13,58h-2 c-0.553,0-1-0.447-1-1s0.447-1,1-1h2c0.553,0,1,0.447,1,1S13.553,58,13,58z M13,20h-2c-0.553,0-1-0.447-1-1s0.447-1,1-1h2 c0.553,0,1,0.447,1,1S13.553,20,13,20z M19,58h-2c-0.553,0-1-0.447-1-1s0.447-1,1-1h2c0.553,0,1,0.447,1,1S19.553,58,19,58z M19,20 h-2c-0.553,0-1-0.447-1-1s0.447-1,1-1h2c0.553,0,1,0.447,1,1S19.553,20,19,20z M25,58h-2c-0.553,0-1-0.447-1-1s0.447-1,1-1h2 c0.553,0,1,0.447,1,1S25.553,58,25,58z M25,20h-2c-0.553,0-1-0.447-1-1s0.447-1,1-1h2c0.553,0,1,0.447,1,1S25.553,20,25,20z M31,58 h-2c-0.553,0-1-0.447-1-1s0.447-1,1-1h2c0.553,0,1,0.447,1,1S31.553,58,31,58z M31,20h-2c-0.553,0-1-0.447-1-1s0.447-1,1-1h2 c0.553,0,1,0.447,1,1S31.553,20,31,20z M31.35,12H15.885l27.141-9.878c1.039-0.378,2.186,0.157,2.564,1.195L48.75,12h-6.098 C41.826,9.672,39.611,8,37,8S32.174,9.672,31.35,12z M44,19c0,0.553-0.447,1-1,1h-2c-0.553,0-1-0.447-1-1s0.447-1,1-1h2 C43.553,18,44,18.447,44,19z M37,10c1.477,0,2.752,0.81,3.445,2h-6.891C34.248,10.81,35.523,10,37,10z M37,58h-2 c-0.553,0-1-0.447-1-1s0.447-1,1-1h2c0.553,0,1,0.447,1,1S37.553,58,37,58z M37,20h-2c-0.553,0-1-0.447-1-1s0.447-1,1-1h2 c0.553,0,1,0.447,1,1S37.553,20,37,20z M43,58h-2c-0.553,0-1-0.447-1-1s0.447-1,1-1h2c0.553,0,1,0.447,1,1S43.553,58,43,58z M49,58 h-2c-0.553,0-1-0.447-1-1s0.447-1,1-1h2c0.553,0,1,0.447,1,1S49.553,58,49,58z M55,58h-2c-0.553,0-1-0.447-1-1s0.447-1,1-1h2 c0.553,0,1,0.447,1,1S55.553,58,55,58z M62,41c0,0.553-0.447,1-1,1H43c-0.553,0-1-0.447-1-1v-6c0-0.553,0.447-1,1-1h18 c0.553,0,1,0.447,1,1V41z">
              </path>
            </g>
          </g>
        </svg>